<svg width="58" height="20" viewBox="0 0 58 20" fill="none" xmlns="http://www.w3.org/2000/svg">
<g clip-path="url(#clip0_112_686)">
<path d="M18.8292 4.76292L16.6301 10.1092L17.5544 4.76292H15.1482L13.6184 16.1276H16.2158L21.2992 4.76292H18.8292ZM22.3347 11.3285H24.4222L25.0277 9.31194H22.9402L23.6892 6.81076H25.8245L26.4459 4.76292H21.8885L18.4783 16.1276H22.9562L23.7529 13.9704H21.5379L22.3347 11.3285ZM8.72927 18.4552C7.47795 18.4552 6.29986 18.1443 5.26919 17.5959L4.65491 18.8416C5.87122 19.4798 7.25772 19.841 8.72927 19.841C11.5107 19.841 13.9877 18.5497 15.5861 16.5389H13.6872C12.3818 17.7285 10.6413 18.4552 8.72927 18.4552ZM10.2723 14.1473V15.3215L13.2173 13.1035L10.3673 10.4753V11.6123H7.32724L10.3673 4.52951V9.74833L12.8289 12.0325L12.8901 0H10.1964L0.354481 19.9372L3.62251 20L6.2633 14.1473H10.2723ZM2.36081 14.7885C1.74735 13.7249 1.39669 12.493 1.39669 11.1798C1.39669 7.52212 4.11726 4.49521 7.66009 3.98163L8.37854 2.52622C3.7202 2.70899 0 6.51309 0 11.1798C0 13.0528 0.599274 14.7869 1.61784 16.2038L2.36081 14.7885ZM12.8241 16.1276V13.9807L10.2693 16.1276H12.8241ZM49.153 10.7345C49.7426 10.7345 50.0773 10.3906 50.1729 10.0623L51.3361 6.20111C51.5592 5.45076 51.2246 4.76295 50.1888 4.76295H45.8066L42.3964 16.1276H44.8027L46.2528 11.2816H47.0495C47.3364 11.2816 47.3682 11.4849 47.3045 11.6725L45.966 16.1277H48.3722L49.6151 11.9851C49.8701 11.1722 49.5196 10.797 49.153 10.7345ZM48.7706 7.0609L48.1332 9.17125C48.0217 9.51517 47.8145 9.60896 47.5754 9.60896H46.7468L47.6552 6.59191H48.4041C48.7706 6.59191 48.8662 6.76385 48.7706 7.0609ZM30.6527 4.76292L29.3301 9.15559L29.2504 4.76292H27.1947L23.7846 16.1276H26.0474L27.4338 11.5942L27.6409 16.1276H29.5691L32.9792 4.76292H30.6527ZM54.6664 6.81076H56.7698L57.3913 4.76292H53.6784C53.1048 4.76292 52.5311 4.91924 52.2602 5.71649L50.9376 10.1248C50.6986 10.9533 50.9376 11.5004 51.9415 11.5004H53.2163C53.3598 11.5004 53.3598 11.563 53.3278 11.6568L52.7701 13.5795C52.6745 13.8609 52.6108 13.9703 52.1646 13.9703H50.1567L49.5034 16.1276H53.4394C53.9334 16.1276 54.4593 15.8931 54.5867 15.4398L55.9094 11.0315C56.244 9.92156 55.7022 9.4526 54.8417 9.4526H53.5509L54.2361 7.13903C54.3158 6.88892 54.4911 6.81076 54.6664 6.81076ZM35.5925 9.31194L34.9869 11.3285H35.4809L34.6045 14.2361H33.7918C33.473 14.2361 33.3296 14.111 33.4252 13.7828L35.4171 7.15465C35.4968 6.87326 35.6243 6.81073 35.8793 6.81073H38.2218L38.8433 4.76288H35.0028C34.238 4.76288 33.7121 4.98174 33.4571 5.82587L31.0031 14.0172C30.5569 15.5179 31.4652 16.1276 32.5488 16.1276H34.0308L33.7758 17.0186L36.4529 15.6899L38.3652 9.31184H35.5925V9.31194ZM40.9466 11.3285H43.0341L43.6397 9.31194H41.5521L42.3011 6.81076H44.4364L45.0579 4.76292H40.5004L37.0902 16.1276H41.5681L42.3648 13.9703H40.1498L40.9466 11.3285Z" fill="#4C42E4"/>
</g>
<defs>
<clipPath id="clip0_112_686">
<rect width="57.3913" height="20" fill="white"/>
</clipPath>
</defs>
</svg>
