<svg width="24" height="25" viewBox="0 0 24 25" fill="none" xmlns="http://www.w3.org/2000/svg">
<path d="M21.9477 10.679C21.816 10.2776 21.4568 9.99332 21.0335 9.95536L15.2601 9.43575L12.9784 4.14017C12.81 3.7511 12.4267 3.5 12 3.5C11.5734 3.5 11.1899 3.7511 11.0225 4.14017L8.74084 9.43575L2.96652 9.95536C2.54323 9.99408 2.1848 10.2783 2.05235 10.679C1.92067 11.0805 2.04228 11.5208 2.36241 11.7992L6.72665 15.5928L5.43985 21.2112C5.34571 21.6243 5.50745 22.0515 5.85322 22.2993C6.03907 22.4331 6.25743 22.5 6.47655 22.5C6.66485 22.5 6.8533 22.4504 7.0216 22.3505L12 19.3996L16.9775 22.3505C17.3427 22.5669 17.8018 22.547 18.1468 22.2993C18.4926 22.0515 18.6543 21.6243 18.5602 21.2112L17.2734 15.5928L21.6376 11.7992C21.9576 11.5208 22.0794 11.0814 21.9477 10.679Z" fill="#E5004D"/>
</svg>
